<svg id="Ebene_2" data-name="Ebene 2" xmlns="http://www.w3.org/2000/svg" xmlns:xlink="http://www.w3.org/1999/xlink" viewBox="0 0 1498.43 1097.95"><defs><clipPath id="clip-path"><rect x="-16.72" y="-18" width="1536.3" height="1136" style="fill:none"/></clipPath></defs><title>Unbenannt-1</title><g style="clip-path:url(#clip-path)"><rect y="-1" width="1500" height="1098" style="fill:#b1dd28"/><polygon points="2.24 -19.54 178.52 121.89 256.21 -141.04 0.25 -141.04 2.24 -19.54" style="fill:#22604b"/><polygon points="632.67 36.23 726.29 452.54 361.78 159.73 632.67 36.23" style="fill:none;stroke:#bbe358;stroke-miterlimit:10;stroke-width:1.49392008781433px"/><path d="M823.9,131.84s255-133.46,245-133.46S632.67,36.23,632.67,36.23Z" style="fill:none;stroke:#bbe358;stroke-miterlimit:10;stroke-width:1.49392008781433px"/><polygon points="314.97 704.51 462.67 895 726.29 452.54 366 159.25 314.97 704.51" style="fill:#41884e"/><polygon points="-9.71 172.68 178.52 121.89 -2.33 -24.67 -9.71 172.68" style="fill:#29554b"/><polygon points="314.97 704.51 -9.71 335.02 -9.71 172.68 172.55 120.89 314.97 704.51" style="fill:#2c6c4d"/><polygon points="366.33 159.33 172.55 120.89 314.97 704.51 366.33 159.33" style="fill:#33774d"/><polygon points="632.67 36.23 918.51 -133.08 411.57 -135.07 632.67 36.23" style="fill:#5b9b50"/><polygon points="1068.9 -1.61 1130.65 -144.03 918.51 -133.08 632.67 36.23 1068.9 -1.61" style="fill:#91bd52"/><polygon points="1224.27 399.75 1455.33 421.67 1372.66 63.12 1064.91 2.37 1224.27 399.75" style="fill:none;stroke:#bbe358;stroke-miterlimit:10;stroke-width:1.49392008781433px"/><polygon points="1368.68 727.42 1224.27 399.75 1023.09 660.69 1368.68 727.42" style="fill:none;stroke:#bbe358;stroke-miterlimit:10;stroke-width:1.49392008781433px"/><polygon points="726.29 452.54 823.9 131.84 632.67 36.23 725.3 449.55 726.29 452.54" style="fill:#61a551"/><polygon points="-5.73 951.51 206.41 1295.11 317.95 701.53 -20.67 783.19 -5.73 951.51" style="fill:#1d5b4b"/><polygon points="-9.71 335.02 -20.67 783.19 317.95 701.53 -9.71 335.02" style="fill:#23604d"/><polygon points="206.41 1295.11 295.05 1539.12 66.98 1376.78 -12.7 1137.75 -5.73 951.51 206.41 1295.11" style="fill:#17514a"/><polygon points="462.37 894.74 563.95 1189.54 364.76 1568 325.33 1553.83 462.37 894.74" style="fill:#27604c"/><polygon points="295.05 1539.12 325.92 1552.07 462.37 894.74 206.41 1295.11 295.05 1539.12" style="fill:#23644d"/><polygon points="462.33 895 839.83 1182.57 839.83 1182.57 563.95 1189.54 462.33 895" style="fill:#397a4f"/><polygon points="689.67 830 861.16 1209.23 462.17 894.83 689.67 830" style="fill:#47864f"/><polygon points="1023.09 660.69 1368.68 727.42 1232.23 1031.18 1023.09 660.69" style="fill:#91bd52"/><polygon points="726.29 452.54 1023.09 660.69 1232.23 1031.18 874.69 878.8 725.3 449.55 726.29 452.54" style="fill:#78ae52"/><polygon points="462.37 894.74 317.83 701.67 206.67 1295.33 462.37 894.74" style="fill:#2f724e"/><polygon points="839.83 1182.57 1076.87 1336.94 874.69 878.8 839.83 1182.57" style="fill:none;stroke:#bbe358;stroke-miterlimit:10;stroke-width:1.49392008781433px"/><polygon points="1232.23 1031.18 1445.37 1203.48 1076.87 1336.94 1232.23 1031.18" style="fill:#74ad53"/><polygon points="689.44 830 726.29 452.54 874.69 878.8 689.44 830" style="fill:#6ba94f"/><polygon points="1445.37 1203.48 1565.88 1190.54 1514.09 765.27 1446.36 1208.46 1445.37 1203.48" style="fill:#b4d357"/><polygon points="1372.66 63.12 1388.6 -71.33 1334.82 -148.02 1130.65 -144.03 1064.91 2.37 1372.66 63.12" style="fill:#bbe159"/><polygon points="823.9 131.84 1023.09 660.69 726 452.33 823.9 131.84" style="fill:#77b053"/><polygon points="1224.27 399.75 823.9 131.84 1066.33 -1 1224.27 399.75" style="fill:#93c155"/><polygon points="1023.09 660.69 1224.27 399.75 823.9 131.84 1023.09 660.69" style="fill:#92c054"/><polygon points="462.67 894.67 726.29 452.54 689.44 830 462.67 894.67" style="fill:#5c9b50"/><polygon points="839.83 1182.57 874.69 878.8 689.33 830 835.85 1179.58 839.83 1182.57" style="fill:#669e51"/><polygon points="1076.87 1336.94 1232.23 1031.18 874.69 878.8 1076.87 1336.94" style="fill:#699d4f"/><polygon points="411.57 -135.07 365.76 159.73 632.67 36.23 411.57 -135.07" style="fill:#3b824e"/><polygon points="284.09 -149.01 365.83 159.67 411.57 -135.07 284.09 -149.01" style="fill:#347e4d"/><polygon points="1455.33 421.67 1368.68 727.42 1224.27 399.75 1455.33 421.67" style="fill:#93c155"/><polygon points="1445.37 1203.48 1368.68 727.42 1514.09 765.27 1445.37 1203.48" style="fill:#b4d357"/><polygon points="1232.23 1031.18 1368.68 727.42 1445.37 1203.48 1232.23 1031.18" style="fill:#aacf56"/><polygon points="1372.66 63.12 1702.32 364.9 1455.33 421.67 1372.66 63.12" style="fill:#bbde57"/><polygon points="1514.09 765.27 1456.32 417.68 1368.68 727.42 1514.09 765.27" style="fill:#bbde57"/><polygon points="365.67 159.5 632.67 36.23 726.29 452.54 365.67 159.5" style="fill:#4d9650"/><polygon points="1066.67 -1.33 823.9 131.84 632 36.33 1066.67 -1.33" style="fill:#74ad53"/><polygon points="839.83 1182.57 1076.87 1336.94 874.69 878.8 839.83 1182.57" style="fill:#4a854f"/><polygon points="1066.33 -0.67 1224.27 399.75 1455.33 421.67 1372.66 63.12 1066.33 -0.67" style="fill:#b4d357"/><polygon points="1023.09 660.69 1224.27 399.75 1368.68 727.42 1023.09 660.69" style="fill:#74ad53"/><polygon points="366.33 160.67 284.33 -148.83 250.04 -144.88 172.83 121 366.33 160.67" style="fill:#2b724d"/></g><rect x="-16.72" y="-18" width="1536.3" height="1136" style="fill:#b1dd28;opacity:0.66"/></svg>