<svg id="Ebene_2" data-name="Ebene 2" xmlns="http://www.w3.org/2000/svg" xmlns:xlink="http://www.w3.org/1999/xlink" viewBox="0 0 960 150"><defs><clipPath id="clip-path"><rect x="-2.41" y="-6.04" width="965.95" height="163.49" style="fill:none"/></clipPath></defs><title>Unbenannt-1</title><g style="clip-path:url(#clip-path)"><rect x="-5.82" y="-7.89" width="969" height="162.44" style="fill:#b1dd28"/><polygon points="179.03 135.63 272.44 253.65 439.7 -24.05 208.7 -209.61 179.03 135.63" style="fill:#41884e"/><polygon points="179.03 135.63 -26.72 -98.53 -26.72 -201.41 88.78 -234.23 179.03 135.63" style="fill:#2c6c4d"/><polygon points="211.22 -209.61 88.78 -234.23 179.03 135.63 211.22 -209.61" style="fill:#33774d"/><polygon points="846.79 150.14 755.27 -57.51 627.78 107.86 846.79 150.14" style="fill:none;stroke:#bbe358;stroke-miterlimit:10;stroke-width:0.946728446028775px"/><polygon points="-24.2 292.15 110.24 509.9 180.93 133.73 -33.67 185.49 -24.2 292.15" style="fill:#1d5b4b"/><polygon points="-26.72 -98.53 -33.67 185.49 180.93 133.73 -26.72 -98.53" style="fill:#23604d"/><polygon points="627.78 107.86 846.79 150.14 760.32 342.64 627.78 107.86" style="fill:#91bd52"/><polygon points="439.7 -24.05 627.78 107.86 760.32 342.64 533.74 246.08 439.07 -25.95 439.7 -24.05" style="fill:#78ae52"/><polygon points="272.44 256.18 179.03 135.63 111.5 507.38 272.44 256.18" style="fill:#2f724e"/><polygon points="416.35 215.15 439.7 -24.05 533.74 246.08 416.35 215.15" style="fill:#6ba94f"/><polygon points="501.55 -227.28 627.78 107.86 439.07 -25.95 501.55 -227.28" style="fill:#77b053"/><polygon points="627.78 107.86 755.27 -57.51 501.55 -227.28 627.78 107.86" style="fill:#92c054"/><polygon points="272.44 253.65 439.7 -24.05 416.35 215.15 272.44 253.65" style="fill:#5c9b50"/><polygon points="901.7 -43.62 846.79 150.14 755.27 -57.51 901.7 -43.62" style="fill:#93c155"/><polygon points="938.94 174.13 902.33 -46.14 846.79 150.14 938.94 174.13" style="fill:#bbde57"/><polygon points="627.78 107.86 755.27 -57.51 846.79 150.14 627.78 107.86" style="fill:#74ad53"/><rect x="-31.16" y="-402.63" width="993.68" height="1054.05" style="fill:#b1dd28;opacity:0.66"/></g></svg>