<svg xmlns="http://www.w3.org/2000/svg" viewBox="0 0 437.98 427.88"><title>Unbenannt-1</title><g id="Ebene_1" data-name="Ebene 1"><path d="M344.73,269.51,353,237l-18.32-9.08a107.24,107.24,0,0,0-.66-12.59l17.88-9.44-9.09-32.26L321.06,175a107.19,107.19,0,0,0-6.11-9.75l11.33-18-24-23.4-18.33,12.2a108,108,0,0,0-10-5.45l.81-21.36L242.29,101l-9.49,19.15a106.45,106.45,0,0,0-12,.1l-9.59-18.15-32.26,9.1,1.27,19.9a106.66,106.66,0,0,0-11.6,6.7l-16.06-10.1-23.39,24,10,15a105.57,105.57,0,0,0-7.79,13.14l-16.8-.64-8.26,32.49,14.41,7.15a106.3,106.3,0,0,0,0,16.95l-13.3,7,9.1,32.25,14.62-.93a108.58,108.58,0,0,0,9.27,15.59L133,301.47l24,23.39L168.82,317A106.54,106.54,0,0,0,185,325.62l-.52,13.84L217,347.72l6.57-13.28a105.89,105.89,0,0,0,17.66-.85l6.88,13,32.27-9.08-1.05-16.44a107.67,107.67,0,0,0,13.52-8.83L306.72,321l23.4-24L319.9,281.65a107.54,107.54,0,0,0,6.36-12.83ZM230,278.5a51.28,51.28,0,1,1,51.28-51.28A51.28,51.28,0,0,1,230,278.5Z" style="fill:#494848"/></g></svg>