<svg xmlns="http://www.w3.org/2000/svg" viewBox="0 0 395.98 419.98"><title>Unbenannt-1</title><g id="Ebene_1" data-name="Ebene 1"><path d="M340.44,228.42v-39.6l-23.62-5.07a126.72,126.72,0,0,0-4.42-14.22l17.73-16-19.8-34.3-24.48,7.91a126.63,126.63,0,0,0-9.84-9.39l7.73-23.94L249.44,74,232,93.28a127.67,127.67,0,0,0-13-3.34l-5.28-24.69H174.1l-5.29,24.69A125.77,125.77,0,0,0,155,93.56l-16.26-18L104.49,95.37l7.25,22.42a126,126,0,0,0-11.34,11l-21.33-6.89-19.8,34.3,15.79,14.27A124.71,124.71,0,0,0,70,187.83L50.53,192v39.6l18.58,4A125.61,125.61,0,0,0,74,255L60.84,266.91l19.8,34.29,16.47-5.32A128.29,128.29,0,0,0,112.26,311l-5,15.6,34.3,19.8,11.27-12.48a125.89,125.89,0,0,0,21,5.2l3.42,16h39.61L220.53,338a125.12,125.12,0,0,0,20-6.11l11.67,12.91,34.31-19.79-6-18.52a127.21,127.21,0,0,0,12.92-14l18.49,6,19.82-34.3-16.18-14.62A127.09,127.09,0,0,0,319.09,233Zm-44.36-14.25A102.18,102.18,0,1,1,193.9,112,102.17,102.17,0,0,1,296.08,214.17Z" style="fill:#494848"/><circle cx="195.62" cy="214.27" r="72.35" style="fill:#fff"/></g></svg>