<svg xmlns="http://www.w3.org/2000/svg" viewBox="0 0 687.55 613.47"><title>Unbenannt-1</title><g id="Ebene_1" data-name="Ebene 1"><path d="M617.44,338.75V267.18L574.75,258a229,229,0,0,0-8-25.7l32-28.94L563,141.4l-44.24,14.29a228.8,228.8,0,0,0-17.78-17l14-43.25L453,59.66,421.49,94.55a230.68,230.68,0,0,0-23.5-6l-9.55-44.62H316.88l-9.56,44.62a227.25,227.25,0,0,0-24.87,6.55L253.06,62.54l-62,35.79,13.09,40.51a227.71,227.71,0,0,0-20.49,20l-38.55-12.45-35.78,62,28.54,25.78a225.35,225.35,0,0,0-9.22,31.29L93.6,272.9v71.56l33.58,7.21A227,227,0,0,0,136,386.74l-23.82,21.54,35.78,62,29.76-9.6A231.82,231.82,0,0,0,205.14,488L196,516.19,258,552l20.37-22.56a227.46,227.46,0,0,0,38,9.4l6.19,28.91h71.57l6.62-30.93a226.07,226.07,0,0,0,36.1-11l21.08,23.32,62-35.76-10.82-33.47a229.86,229.86,0,0,0,23.34-25.38l33.41,10.8,35.8-62-29.24-26.42a229.63,229.63,0,0,0,6.42-29.9ZM537.28,313c0,102-82.66,184.61-184.63,184.61S168,414.95,168,313,250.7,128.35,352.66,128.35,537.28,211,537.28,313Z" style="fill:#494848"/><path d="M352,126.93c-102.9,0-186.32,83.42-186.32,186.32S249.15,499.56,352,499.56s186.32-83.42,186.32-186.32S454.95,126.93,352,126.93Zm2.4,303.71a117.5,117.5,0,1,1,117.5-117.5A117.5,117.5,0,0,1,354.45,430.64Z" style="fill:#86888d"/><path d="M353.58,159.27c-88.24,0-159.78,69.24-159.78,154.65s71.54,154.65,159.78,154.65,159.78-69.24,159.78-154.65S441.82,159.27,353.58,159.27Zm1.54,229.51a72.35,72.35,0,1,1,72.35-72.35A72.35,72.35,0,0,1,355.12,388.78Z" style="fill:#fff"/></g></svg>