<svg xmlns="http://www.w3.org/2000/svg" viewBox="0 0 1438 884"><title>Unbenannt-1</title><g id="Ebene_1" data-name="Ebene 1"><text transform="translate(103.22 536.08)" style="font-size:300px;fill:#fff;font-family:ArialRoundedMTBold, Arial Rounded MT Bold">D<tspan x="222.07" y="0" style="letter-spacing:-0.02490234375em">e</tspan><tspan x="392.87" y="0">v</tspan></text><text transform="translate(658.69 536.08) scale(1 0.88)" style="font-size:300px;fill:#676767;font-family:ArialRoundedMTBold, Arial Rounded MT Bold"><tspan xml:space="preserve">    </tspan></text><text transform="translate(958.69 536.08)" style="font-size:300px;fill:#fff;font-family:ArialRoundedMTBold, Arial Rounded MT Bold">ps</text><path d="M986.65,459.19V415.34l-26.16-5.61A140.31,140.31,0,0,0,955.6,394l19.63-17.74-21.92-38L926.2,347a140.2,140.2,0,0,0-10.89-10.4l8.56-26.5-38-21.94-19.32,21.38a141.35,141.35,0,0,0-14.4-3.7l-5.85-27.34H802.48l-5.86,27.34a139.25,139.25,0,0,0-15.24,4l-18-19.93-38,21.93,8,24.82a139.54,139.54,0,0,0-12.55,12.23l-23.62-7.63-21.93,38,17.49,15.8a138.09,138.09,0,0,0-5.65,19.17l-21.5,4.6v43.85l20.58,4.42a139.08,139.08,0,0,0,5.43,21.49l-14.6,13.2,21.92,38,18.23-5.89A142,142,0,0,0,734,550.65l-5.57,17.27,38,21.93L778.89,576a139.38,139.38,0,0,0,23.29,5.76L806,599.51h43.86l4.06-19A138.53,138.53,0,0,0,876,573.8l12.92,14.29,38-21.91-6.63-20.51a140.85,140.85,0,0,0,14.3-15.55L955,536.74l21.94-38-17.92-16.19A140.71,140.71,0,0,0,963,464.26Zm-49.12-15.78A113.13,113.13,0,1,1,824.4,330.26,113.13,113.13,0,0,1,937.53,443.41Z" style="fill:#494848"/><path d="M986.65,459.19V415.34l-26.16-5.61A140.31,140.31,0,0,0,955.6,394l19.63-17.74-21.92-38L926.2,347a140.2,140.2,0,0,0-10.89-10.4l8.56-26.5-38-21.94-19.32,21.38a141.35,141.35,0,0,0-14.4-3.7l-5.85-27.34H802.48l-5.86,27.34a139.25,139.25,0,0,0-15.24,4l-18-19.93-38,21.93,8,24.82a139.54,139.54,0,0,0-12.55,12.23l-23.62-7.63-21.93,38,17.49,15.8a138.09,138.09,0,0,0-5.65,19.17l-21.5,4.6v43.85l20.58,4.42a139.08,139.08,0,0,0,5.43,21.49l-14.6,13.2,21.92,38,18.23-5.89A142,142,0,0,0,734,550.65l-5.57,17.27,38,21.93L778.89,576a139.38,139.38,0,0,0,23.29,5.76L806,599.51h43.86l4.06-19A138.53,138.53,0,0,0,876,573.8l12.92,14.29,38-21.91-6.63-20.51a140.85,140.85,0,0,0,14.3-15.55L955,536.74l21.94-38-17.92-16.19A140.71,140.71,0,0,0,963,464.26Zm-49.12-15.78A113.13,113.13,0,1,1,824.4,330.26,113.13,113.13,0,0,1,937.53,443.41Z" style="fill:#494848"/><path d="M1104,282.52V258.25l-14.48-3.1a77.65,77.65,0,0,0-2.71-8.72l10.86-9.82-12.13-21-15,4.85a77.59,77.59,0,0,0-6-5.75l4.74-14.67-21-12.14-10.69,11.83a78.23,78.23,0,0,0-8-2l-3.24-15.13h-24.27l-3.24,15.13a77.07,77.07,0,0,0-8.43,2.22l-10-11L959.4,201l4.44,13.74a77.22,77.22,0,0,0-6.95,6.77l-13.07-4.22-12.13,21,9.68,8.74a76.42,76.42,0,0,0-3.13,10.61l-11.9,2.54v24.27l11.39,2.45a77,77,0,0,0,3,11.89l-8.08,7.3,12.13,21,10.09-3.26a78.62,78.62,0,0,0,9.28,9.28l-3.08,9.56,21,12.14,6.91-7.65a77.14,77.14,0,0,0,12.89,3.19l2.1,9.8h24.27l2.25-10.49a76.67,76.67,0,0,0,12.24-3.74l7.15,7.91,21-12.13-3.67-11.35a78,78,0,0,0,7.92-8.61l11.33,3.66,12.14-21-9.92-9a77.87,77.87,0,0,0,2.18-10.14Zm-27.18-8.74a62.61,62.61,0,1,1-62.61-62.62A62.61,62.61,0,0,1,1076.8,273.79Z" style="fill:#494848"/><circle cx="1015.24" cy="273.85" r="44.33" style="fill:#fff"/><path d="M920.95,251.11l3.31-13-7.34-3.64a43,43,0,0,0-.27-5l7.16-3.78-3.64-12.93-8.71.55a43,43,0,0,0-2.45-3.91l4.54-7.22-9.62-9.38-7.35,4.89a43.29,43.29,0,0,0-4-2.18l.33-8.56-13-3.31-3.8,7.67a42.65,42.65,0,0,0-4.83,0L867.43,184l-12.93,3.65.51,8a42.74,42.74,0,0,0-4.65,2.68l-6.44-4-9.37,9.62,4,6a42.3,42.3,0,0,0-3.12,5.27l-6.73-.26-3.31,13,5.78,2.86a42.59,42.59,0,0,0,0,6.79l-5.33,2.82,3.65,12.92,5.86-.37a43.51,43.51,0,0,0,3.72,6.25l-3,4.71,9.62,9.37,4.75-3.16a42.69,42.69,0,0,0,6.48,3.47l-.21,5.54,13,3.31,2.63-5.32a42.43,42.43,0,0,0,7.08-.34l2.76,5.22,12.93-3.64-.42-6.59a43.14,43.14,0,0,0,5.42-3.54l5.58,3.51,9.38-9.62L911,256a43.09,43.09,0,0,0,2.55-5.14Zm-46,3.6a20.55,20.55,0,1,1,20.55-20.55A20.55,20.55,0,0,1,875,254.72Z" style="fill:#494848"/><path d="M824,329.4A114.17,114.17,0,1,0,938.2,443.57,114.17,114.17,0,0,0,824,329.4Zm1.47,186.1a72,72,0,1,1,72-72A72,72,0,0,1,825.5,515.5Z" style="fill:#86888d"/><path d="M825,349.21c-54.07,0-97.91,42.43-97.91,94.77s43.84,94.77,97.91,94.77,97.91-42.43,97.91-94.77S879,349.21,825,349.21Zm.94,140.63a44.33,44.33,0,1,1,44.33-44.33A44.33,44.33,0,0,1,825.91,489.85Z" style="fill:#fff"/></g></svg>