<svg xmlns="http://www.w3.org/2000/svg" viewBox="0 0 910.45 889.46"><title>Unbenannt-1</title><g id="Ebene_1" data-name="Ebene 1"><path d="M656.48,558.72V487.16L613.79,478a229,229,0,0,0-8-25.7l32-28.94-35.77-62-44.24,14.29a228.8,228.8,0,0,0-17.78-17l14-43.25-62-35.81-31.52,34.89a230.68,230.68,0,0,0-23.5-6l-9.55-44.62H355.93l-9.56,44.62A227.25,227.25,0,0,0,321.49,315l-29.39-32.52-62,35.79,13.09,40.51a227.71,227.71,0,0,0-20.49,20L184.2,366.33l-35.78,62L177,454.08a225.35,225.35,0,0,0-9.22,31.29l-35.09,7.5v71.56l33.58,7.21a227,227,0,0,0,8.87,35.07l-23.82,21.54,35.78,62,29.76-9.6A231.82,231.82,0,0,0,244.18,708l-9.09,28.19,62,35.78,20.37-22.56a227.46,227.46,0,0,0,38,9.4l6.19,28.91h71.57l6.62-30.93a226.07,226.07,0,0,0,36.1-11L497,769.08l62-35.76-10.82-33.47a229.86,229.86,0,0,0,23.34-25.38l33.41,10.8,35.8-62-29.24-26.42A229.63,229.63,0,0,0,617.9,567ZM576.32,533c0,102-82.66,184.61-184.63,184.61S207.08,634.92,207.08,533,289.74,348.32,391.7,348.32,576.32,431,576.32,533Z" style="fill:#494848"/><path d="M848,270.41V230.8l-23.62-5.07a126.72,126.72,0,0,0-4.42-14.22l17.73-16-19.8-34.3-24.48,7.91a126.63,126.63,0,0,0-9.84-9.39l7.73-23.94L757,116l-17.45,19.31a127.67,127.67,0,0,0-13-3.34l-5.28-24.69h-39.6l-5.29,24.69a125.77,125.77,0,0,0-13.76,3.62l-16.26-18L612,137.35l7.25,22.42a126,126,0,0,0-11.34,11l-21.33-6.89-19.8,34.3,15.79,14.27a124.71,124.71,0,0,0-5.1,17.32L558,234v39.6l18.58,4A125.61,125.61,0,0,0,581.54,297l-13.18,11.92,19.8,34.29,16.47-5.32A128.29,128.29,0,0,0,619.78,353l-5,15.6,34.3,19.8,11.27-12.48a125.89,125.89,0,0,0,21,5.2l3.42,16h39.61L728,380a125.12,125.12,0,0,0,20-6.11l11.67,12.91L794,367l-6-18.52a127.21,127.21,0,0,0,12.92-14l18.49,6,19.82-34.3-16.18-14.62A127.09,127.09,0,0,0,826.61,275ZM803.6,256.15A102.18,102.18,0,1,1,701.42,154,102.17,102.17,0,0,1,803.6,256.15Z" style="fill:#494848"/><circle cx="703.14" cy="256.25" r="72.35" style="fill:#fff"/><path d="M549.26,219.15l5.4-21.24-12-5.94a70.12,70.12,0,0,0-.43-8.23l11.69-6.18L548,156.47l-14.21.91a70.09,70.09,0,0,0-4-6.38l7.41-11.79-15.7-15.3-12,8a70.64,70.64,0,0,0-6.52-3.56l.53-14L482.27,109l-6.2,12.52a69.61,69.61,0,0,0-7.88.07l-6.27-11.87-21.09,6,.83,13a69.75,69.75,0,0,0-7.59,4.38l-10.5-6.6-15.3,15.7,6.53,9.81a69,69,0,0,0-5.1,8.59l-11-.42-5.4,21.24,9.42,4.67a69.51,69.51,0,0,0,0,11.08L394,201.7,400,222.79l9.56-.61a71,71,0,0,0,6.06,10.19l-4.82,7.68,15.7,15.3,7.75-5.16a69.67,69.67,0,0,0,10.57,5.66l-.34,9,21.25,5.4,4.3-8.68a69.24,69.24,0,0,0,11.55-.55l4.5,8.51,21.1-5.94-.69-10.75a70.41,70.41,0,0,0,8.84-5.77l9.1,5.73,15.3-15.7-6.69-10a70.32,70.32,0,0,0,4.16-8.39ZM474.2,225a33.54,33.54,0,1,1,33.54-33.54A33.54,33.54,0,0,1,474.2,225Z" style="fill:#494848"/><path d="M391.09,346.9c-102.9,0-186.32,83.42-186.32,186.32s83.42,186.32,186.32,186.32,186.32-83.42,186.32-186.32S494,346.9,391.09,346.9Zm2.4,303.71A117.5,117.5,0,1,1,511,533.11,117.5,117.5,0,0,1,393.49,650.61Z" style="fill:#86888d"/><path d="M392.62,379.25c-88.24,0-159.78,69.24-159.78,154.65s71.54,154.65,159.78,154.65S552.4,619.31,552.4,533.9,480.87,379.25,392.62,379.25Zm1.54,229.51a72.35,72.35,0,1,1,72.35-72.35A72.35,72.35,0,0,1,394.16,608.75Z" style="fill:#fff"/></g></svg>